<svg width="200" height="200" viewBox="0 0 200 200" xmlns="http://www.w3.org/2000/svg">
  <rect width="200" height="200" rx="20" ry="20" fill="#4A4A4A"/>
  <g fill="#FFFFFF">
    <path d="M100 50c-27.6 0-50 22.4-50 50s22.4 50 50 50 50-22.4 50-50-22.4-50-50-50zm0 90c-22.1 0-40-17.9-40-40s17.9-40 40-40 40 17.9 40 40-17.9 40-40 40z"/>
    <path d="M115.5 84.5c-1.4-1.4-3.6-1.4-5 0l-10 10c-1.4 1.4-1.4 3.6 0 5s3.6 1.4 5 0l10-10c1.4-1.4 1.4-3.6 0-5zM84.5 115.5c-1.4-1.4-3.6-1.4-5 0l-10 10c-1.4 1.4-1.4 3.6 0 5s3.6 1.4 5 0l10-10c1.4-1.4 1.4-3.6 0-5z"/>
    <path d="M115.5 115.5c-1.4-1.4-3.6-1.4-5 0l-30 30c-1.4 1.4-1.4 3.6 0 5s3.6 1.4 5 0l30-30c1.4-1.4 1.4-3.6 0-5z"/>
  </g>
  <text x="50%" y="90%" dominant-baseline="middle" text-anchor="middle" font-family="Arial, sans-serif" font-size="24" fill="#FFFFFF">Linkly</text>
</svg>